<svg width="89" height="16" viewBox="0 0 89 16" fill="none" xmlns="http://www.w3.org/2000/svg">
<path d="M8.79011 1.5C7.37756 1.5 5.99673 1.88122 4.82224 2.59545C3.64775 3.30968 2.73235 4.32484 2.19179 5.51256C1.65123 6.70028 1.50979 8.00721 1.78537 9.26809C2.06094 10.529 2.74115 11.6872 3.73997 12.5962C4.73879 13.5052 6.01137 14.1243 7.39678 14.3751C8.78219 14.6259 10.2182 14.4972 11.5232 14.0052C12.8283 13.5132 13.9437 12.6801 14.7284 11.6112C15.5132 10.5423 15.9321 9.28558 15.9321 8C15.9301 6.27665 15.177 4.62441 13.838 3.40582C12.4991 2.18722 10.6837 1.50182 8.79011 1.5ZM8.79011 13.5C7.59488 13.5 6.42648 13.1774 5.43268 12.5731C4.43888 11.9687 3.66431 11.1098 3.20691 10.1048C2.74952 9.09977 2.62984 7.9939 2.86302 6.927C3.0962 5.86011 3.67176 4.8801 4.51692 4.11091C5.36207 3.34172 6.43887 2.8179 7.61114 2.60568C8.78341 2.39346 9.9985 2.50238 11.1027 2.91866C12.207 3.33494 13.1508 4.03989 13.8149 4.94436C14.4789 5.84883 14.8333 6.9122 14.8333 8C14.8315 9.45818 14.1942 10.8562 13.0613 11.8873C11.9284 12.9184 10.3923 13.4983 8.79011 13.5ZM12.0864 8C12.0864 8.13261 12.0285 8.25979 11.9255 8.35355C11.8225 8.44732 11.6827 8.5 11.537 8.5H9.33949V10.5C9.33949 10.6326 9.28161 10.7598 9.17858 10.8536C9.07555 10.9473 8.93582 11 8.79011 11C8.6444 11 8.50467 10.9473 8.40164 10.8536C8.29861 10.7598 8.24073 10.6326 8.24073 10.5V8.5H6.0432C5.89749 8.5 5.75775 8.44732 5.65473 8.35355C5.5517 8.25979 5.49381 8.13261 5.49381 8C5.49381 7.86739 5.5517 7.74021 5.65473 7.64645C5.75775 7.55268 5.89749 7.5 6.0432 7.5H8.24073V5.5C8.24073 5.36739 8.29861 5.24021 8.40164 5.14645C8.50467 5.05268 8.6444 5 8.79011 5C8.93582 5 9.07555 5.05268 9.17858 5.14645C9.28161 5.24021 9.33949 5.36739 9.33949 5.5V7.5H11.537C11.6827 7.5 11.8225 7.55268 11.9255 7.64645C12.0285 7.74021 12.0864 7.86739 12.0864 8Z" fill="white"/>
<path d="M22.2953 12L25.0053 4.8H25.9253L23.3353 12H22.2953ZM27.8653 12L25.2753 4.8H26.2453L28.9653 12H27.8653ZM23.6653 9.13H27.5253V10.01H23.6653V9.13ZM33.4361 12V10.83L33.5361 10.86C33.4294 11.24 33.2094 11.5433 32.8761 11.77C32.5428 11.99 32.1428 12.1 31.6761 12.1C31.2161 12.1 30.8128 11.99 30.4661 11.77C30.1261 11.55 29.8594 11.2433 29.6661 10.85C29.4794 10.4567 29.3861 9.99667 29.3861 9.47C29.3861 8.93667 29.4828 8.47 29.6761 8.07C29.8694 7.67 30.1394 7.36 30.4861 7.14C30.8328 6.92 31.2394 6.81 31.7061 6.81C32.1928 6.81 32.5928 6.92667 32.9061 7.16C33.2261 7.38667 33.4361 7.70667 33.5361 8.12L33.3961 8.14V4.8H34.4261V12H33.4361ZM31.9361 11.23C32.3961 11.23 32.7594 11.0733 33.0261 10.76C33.2928 10.44 33.4261 10 33.4261 9.44C33.4261 8.89333 33.2894 8.46333 33.0161 8.15C32.7494 7.83 32.3861 7.67 31.9261 7.67C31.4728 7.67 31.1128 7.83 30.8461 8.15C30.5861 8.46333 30.4561 8.90333 30.4561 9.47C30.4561 10.0233 30.5861 10.4567 30.8461 10.77C31.1128 11.0767 31.4761 11.23 31.9361 11.23ZM39.5689 12V10.83L39.6689 10.86C39.5622 11.24 39.3422 11.5433 39.0089 11.77C38.6756 11.99 38.2756 12.1 37.8089 12.1C37.3489 12.1 36.9456 11.99 36.5989 11.77C36.2589 11.55 35.9922 11.2433 35.7989 10.85C35.6122 10.4567 35.5189 9.99667 35.5189 9.47C35.5189 8.93667 35.6156 8.47 35.8089 8.07C36.0022 7.67 36.2722 7.36 36.6189 7.14C36.9656 6.92 37.3722 6.81 37.8389 6.81C38.3256 6.81 38.7256 6.92667 39.0389 7.16C39.3589 7.38667 39.5689 7.70667 39.6689 8.12L39.5289 8.14V4.8H40.5589V12H39.5689ZM38.0689 11.23C38.5289 11.23 38.8922 11.0733 39.1589 10.76C39.4256 10.44 39.5589 10 39.5589 9.44C39.5589 8.89333 39.4222 8.46333 39.1489 8.15C38.8822 7.83 38.5189 7.67 38.0589 7.67C37.6056 7.67 37.2456 7.83 36.9789 8.15C36.7189 8.46333 36.5889 8.90333 36.5889 9.47C36.5889 10.0233 36.7189 10.4567 36.9789 10.77C37.2456 11.0767 37.6089 11.23 38.0689 11.23ZM44.0044 12V4.8H45.2344L49.0544 10.96L48.8144 11.01V4.8H49.8344V12H48.6044L44.7844 5.84L45.0244 5.79V12H44.0044ZM53.5088 12.1C52.9955 12.1 52.5422 11.9867 52.1488 11.76C51.7622 11.5333 51.4588 11.22 51.2388 10.82C51.0188 10.42 50.9088 9.96 50.9088 9.44C50.9088 8.91333 51.0155 8.45333 51.2288 8.06C51.4488 7.66 51.7555 7.35 52.1488 7.13C52.5422 6.91 52.9922 6.8 53.4988 6.8C53.9922 6.8 54.4188 6.90667 54.7788 7.12C55.1455 7.32667 55.4255 7.61667 55.6188 7.99C55.8188 8.36333 55.9188 8.80667 55.9188 9.32C55.9188 9.4 55.9155 9.47667 55.9088 9.55C55.9088 9.61667 55.9022 9.68667 55.8888 9.76H51.6088V8.98H55.1588L54.8988 9.29C54.8988 8.74333 54.7755 8.32667 54.5288 8.04C54.2822 7.75333 53.9388 7.61 53.4988 7.61C53.0255 7.61 52.6488 7.77333 52.3688 8.1C52.0955 8.42 51.9588 8.86667 51.9588 9.44C51.9588 10.02 52.0955 10.4733 52.3688 10.8C52.6488 11.1267 53.0355 11.29 53.5288 11.29C53.8288 11.29 54.0888 11.23 54.3088 11.11C54.5288 10.9833 54.6922 10.8 54.7988 10.56H55.7788C55.6122 11.04 55.3288 11.4167 54.9288 11.69C54.5355 11.9633 54.0622 12.1 53.5088 12.1ZM57.9252 12L56.3652 6.9H57.4352L58.4952 11H58.3452L59.6352 6.9H60.5352L61.8252 11H61.6852L62.7352 6.9H63.7552L62.1952 12H61.2852L59.9952 7.97H60.1452L58.8352 12H57.9252ZM66.6899 12V4.8H69.7399C70.2599 4.8 70.7033 4.88667 71.0699 5.06C71.4366 5.23333 71.7166 5.48 71.9099 5.8C72.1099 6.12 72.2099 6.5 72.2099 6.94C72.2099 7.38667 72.1099 7.77333 71.9099 8.1C71.7166 8.42 71.4333 8.67 71.0599 8.85C70.6933 9.03 70.2533 9.12 69.7399 9.12H67.4999V8.24H69.6899C70.1633 8.24 70.5233 8.12667 70.7699 7.9C71.0233 7.67333 71.1499 7.35667 71.1499 6.95C71.1499 6.53667 71.0266 6.22 70.7799 6C70.5333 5.78 70.1699 5.67 69.6899 5.67H67.7499V12H66.6899ZM75.208 12.1C74.6947 12.1 74.2414 11.9867 73.848 11.76C73.4614 11.5333 73.158 11.22 72.938 10.82C72.718 10.42 72.608 9.96 72.608 9.44C72.608 8.91333 72.7147 8.45333 72.928 8.06C73.148 7.66 73.4547 7.35 73.848 7.13C74.2414 6.91 74.6914 6.8 75.198 6.8C75.6914 6.8 76.118 6.90667 76.478 7.12C76.8447 7.32667 77.1247 7.61667 77.318 7.99C77.518 8.36333 77.618 8.80667 77.618 9.32C77.618 9.4 77.6147 9.47667 77.608 9.55C77.608 9.61667 77.6014 9.68667 77.588 9.76H73.308V8.98H76.858L76.598 9.29C76.598 8.74333 76.4747 8.32667 76.228 8.04C75.9814 7.75333 75.638 7.61 75.198 7.61C74.7247 7.61 74.348 7.77333 74.068 8.1C73.7947 8.42 73.658 8.86667 73.658 9.44C73.658 10.02 73.7947 10.4733 74.068 10.8C74.348 11.1267 74.7347 11.29 75.228 11.29C75.528 11.29 75.788 11.23 76.008 11.11C76.228 10.9833 76.3914 10.8 76.498 10.56H77.478C77.3114 11.04 77.028 11.4167 76.628 11.69C76.2347 11.9633 75.7614 12.1 75.208 12.1ZM80.764 12.1C80.1706 12.1 79.734 11.9633 79.454 11.69C79.1806 11.41 79.044 11 79.044 10.46V5.73L80.074 5.34V10.47C80.074 10.7367 80.144 10.9333 80.284 11.06C80.424 11.1867 80.6506 11.25 80.964 11.25C81.084 11.25 81.1906 11.24 81.284 11.22C81.3773 11.2 81.4573 11.1767 81.524 11.15V11.99C81.4507 12.0233 81.3473 12.05 81.214 12.07C81.0807 12.09 80.9307 12.1 80.764 12.1ZM78.024 7.73V6.9H81.524V7.73H78.024Z" fill="#E0D9D9"/>
</svg>
