<svg width="61" height="16" viewBox="0 0 61 16" fill="none" xmlns="http://www.w3.org/2000/svg">
<path d="M21.824 12V11.016H24.404C24.892 11.016 25.272 10.884 25.544 10.62C25.824 10.356 25.964 9.996 25.964 9.54C25.964 9.06 25.816 8.676 25.52 8.388C25.232 8.1 24.836 7.956 24.332 7.956H21.824V6.996H24.212C24.7 6.996 25.076 6.88 25.34 6.648C25.612 6.408 25.748 6.068 25.748 5.628C25.748 5.212 25.62 4.896 25.364 4.68C25.116 4.456 24.748 4.344 24.26 4.344H21.824V3.36H24.452C25.236 3.36 25.86 3.552 26.324 3.936C26.788 4.312 27.02 4.828 27.02 5.484C27.02 5.9 26.924 6.268 26.732 6.588C26.548 6.9 26.292 7.144 25.964 7.32C25.636 7.488 25.264 7.572 24.848 7.572L24.908 7.32C25.356 7.32 25.756 7.424 26.108 7.632C26.46 7.832 26.74 8.108 26.948 8.46C27.156 8.812 27.26 9.22 27.26 9.684C27.26 10.14 27.148 10.544 26.924 10.896C26.708 11.248 26.4 11.52 26 11.712C25.6 11.904 25.136 12 24.608 12H21.824ZM20.888 12V3.36H22.16V12H20.888ZM32.2969 12C32.2569 11.848 32.2289 11.68 32.2129 11.496C32.2049 11.312 32.2009 11.088 32.2009 10.824H32.1409V7.908C32.1409 7.516 32.0409 7.224 31.8409 7.032C31.6489 6.832 31.3409 6.732 30.9169 6.732C30.5089 6.732 30.1809 6.812 29.9329 6.972C29.6929 7.132 29.5529 7.36 29.5129 7.656H28.3249C28.3809 7.08 28.6409 6.62 29.1049 6.276C29.5689 5.932 30.1889 5.76 30.9649 5.76C31.7649 5.76 32.3649 5.948 32.7649 6.324C33.1649 6.692 33.3649 7.236 33.3649 7.956V10.824C33.3649 11.008 33.3769 11.196 33.4009 11.388C33.4249 11.58 33.4609 11.784 33.5089 12H32.2969ZM30.1849 12.12C29.5609 12.12 29.0649 11.968 28.6969 11.664C28.3289 11.352 28.1449 10.932 28.1449 10.404C28.1449 9.86 28.3369 9.432 28.7209 9.12C29.1129 8.8 29.6729 8.584 30.4009 8.472L32.4169 8.148V9.024L30.5929 9.312C30.1849 9.376 29.8769 9.484 29.6689 9.636C29.4689 9.788 29.3689 10.008 29.3689 10.296C29.3689 10.576 29.4609 10.788 29.6449 10.932C29.8369 11.068 30.1129 11.136 30.4729 11.136C30.9529 11.136 31.3489 11.02 31.6609 10.788C31.9809 10.556 32.1409 10.264 32.1409 9.912L32.2969 10.8C32.1529 11.224 31.8969 11.552 31.5289 11.784C31.1609 12.008 30.7129 12.12 30.1849 12.12ZM37.5528 12.12C36.9688 12.12 36.4488 11.984 35.9928 11.712C35.5368 11.432 35.1768 11.052 34.9128 10.572C34.6568 10.092 34.5288 9.544 34.5288 8.928C34.5288 8.312 34.6568 7.768 34.9128 7.296C35.1768 6.816 35.5368 6.44 35.9928 6.168C36.4488 5.896 36.9648 5.76 37.5408 5.76C38.0288 5.76 38.4648 5.852 38.8488 6.036C39.2328 6.22 39.5488 6.476 39.7968 6.804C40.0448 7.132 40.2048 7.52 40.2768 7.968H39.1008C39.0208 7.608 38.8448 7.32 38.5728 7.104C38.3088 6.888 37.9728 6.78 37.5648 6.78C37.2128 6.78 36.9048 6.868 36.6408 7.044C36.3768 7.22 36.1728 7.468 36.0288 7.788C35.8848 8.108 35.8128 8.488 35.8128 8.928C35.8128 9.36 35.8848 9.74 36.0288 10.068C36.1728 10.396 36.3768 10.652 36.6408 10.836C36.9048 11.012 37.2168 11.1 37.5768 11.1C37.9688 11.1 38.3008 10.996 38.5728 10.788C38.8528 10.572 39.0328 10.284 39.1128 9.924H40.2888C40.2088 10.364 40.0408 10.748 39.7848 11.076C39.5368 11.404 39.2208 11.66 38.8368 11.844C38.4528 12.028 38.0248 12.12 37.5528 12.12ZM41.5244 12V3.204H42.7724V12H41.5244ZM45.4964 12L42.4844 8.82L45.4004 5.88H46.9724L43.6604 9.096L43.7204 8.532L47.0924 12H45.4964Z" fill="#E0D9D9"/>
<path d="M8 1.5C6.71442 1.5 5.45772 1.88122 4.3888 2.59545C3.31988 3.30968 2.48676 4.32484 1.99479 5.51256C1.50282 6.70028 1.37409 8.00721 1.6249 9.26809C1.8757 10.529 2.49477 11.6872 3.40381 12.5962C4.31285 13.5052 5.47104 14.1243 6.73192 14.3751C7.99279 14.6259 9.29973 14.4972 10.4874 14.0052C11.6752 13.5132 12.6903 12.6801 13.4046 11.6112C14.1188 10.5423 14.5 9.28558 14.5 8C14.4982 6.27665 13.8128 4.62441 12.5942 3.40582C11.3756 2.18722 9.72335 1.50182 8 1.5ZM8 13.5C6.91221 13.5 5.84884 13.1774 4.94437 12.5731C4.0399 11.9687 3.33495 11.1098 2.91867 10.1048C2.50238 9.09977 2.39347 7.9939 2.60568 6.927C2.8179 5.86011 3.34173 4.8801 4.11092 4.11091C4.8801 3.34172 5.86011 2.8179 6.92701 2.60568C7.9939 2.39346 9.09977 2.50238 10.1048 2.91866C11.1098 3.33494 11.9687 4.03989 12.5731 4.94436C13.1774 5.84883 13.5 6.9122 13.5 8C13.4983 9.45818 12.9184 10.8562 11.8873 11.8873C10.8562 12.9184 9.45819 13.4983 8 13.5ZM11 8C11 8.13261 10.9473 8.25979 10.8536 8.35355C10.7598 8.44732 10.6326 8.5 10.5 8.5H6.70688L7.85375 9.64625C7.90021 9.69271 7.93706 9.74786 7.9622 9.80855C7.98734 9.86925 8.00028 9.9343 8.00028 10C8.00028 10.0657 7.98734 10.1308 7.9622 10.1914C7.93706 10.2521 7.90021 10.3073 7.85375 10.3538C7.8073 10.4002 7.75215 10.4371 7.69145 10.4622C7.63075 10.4873 7.5657 10.5003 7.5 10.5003C7.43431 10.5003 7.36925 10.4873 7.30855 10.4622C7.24786 10.4371 7.19271 10.4002 7.14625 10.3538L5.14625 8.35375C5.09976 8.30731 5.06289 8.25217 5.03772 8.19147C5.01256 8.13077 4.99961 8.06571 4.99961 8C4.99961 7.93429 5.01256 7.86923 5.03772 7.80853C5.06289 7.74783 5.09976 7.69269 5.14625 7.64625L7.14625 5.64625C7.24007 5.55243 7.36732 5.49972 7.5 5.49972C7.63268 5.49972 7.75993 5.55243 7.85375 5.64625C7.94757 5.74007 8.00028 5.86732 8.00028 6C8.00028 6.13268 7.94757 6.25993 7.85375 6.35375L6.70688 7.5H10.5C10.6326 7.5 10.7598 7.55268 10.8536 7.64645C10.9473 7.74021 11 7.86739 11 8Z" fill="#E0D9D9"/>
</svg>
