<svg width="124" height="32" viewBox="0 0 124 32" fill="none" xmlns="http://www.w3.org/2000/svg">
<path d="M34.768 24L41.272 6.72H43.48L37.264 24H34.768ZM48.136 24L41.92 6.72H44.248L50.776 24H48.136ZM38.056 17.112H47.32V19.224H38.056V17.112ZM61.5059 24V21.192L61.7459 21.264C61.4899 22.176 60.9619 22.904 60.1619 23.448C59.3619 23.976 58.4019 24.24 57.2819 24.24C56.1779 24.24 55.2099 23.976 54.3779 23.448C53.5619 22.92 52.9219 22.184 52.4579 21.24C52.0099 20.296 51.7859 19.192 51.7859 17.928C51.7859 16.648 52.0179 15.528 52.4819 14.568C52.9459 13.608 53.5939 12.864 54.4259 12.336C55.2579 11.808 56.2339 11.544 57.3539 11.544C58.5219 11.544 59.4819 11.824 60.2339 12.384C61.0019 12.928 61.5059 13.696 61.7459 14.688L61.4099 14.736V6.72H63.8819V24H61.5059ZM57.9059 22.152C59.0099 22.152 59.8819 21.776 60.5219 21.024C61.1619 20.256 61.4819 19.2 61.4819 17.856C61.4819 16.544 61.1539 15.512 60.4979 14.76C59.8579 13.992 58.9859 13.608 57.8819 13.608C56.7939 13.608 55.9299 13.992 55.2899 14.76C54.6659 15.512 54.3539 16.568 54.3539 17.928C54.3539 19.256 54.6659 20.296 55.2899 21.048C55.9299 21.784 56.8019 22.152 57.9059 22.152ZM76.2246 24V21.192L76.4646 21.264C76.2086 22.176 75.6806 22.904 74.8806 23.448C74.0806 23.976 73.1206 24.24 72.0006 24.24C70.8966 24.24 69.9286 23.976 69.0966 23.448C68.2806 22.92 67.6406 22.184 67.1766 21.24C66.7286 20.296 66.5046 19.192 66.5046 17.928C66.5046 16.648 66.7366 15.528 67.2006 14.568C67.6646 13.608 68.3126 12.864 69.1446 12.336C69.9766 11.808 70.9526 11.544 72.0726 11.544C73.2406 11.544 74.2006 11.824 74.9526 12.384C75.7206 12.928 76.2246 13.696 76.4646 14.688L76.1286 14.736V6.72H78.6006V24H76.2246ZM72.6246 22.152C73.7286 22.152 74.6006 21.776 75.2406 21.024C75.8806 20.256 76.2006 19.2 76.2006 17.856C76.2006 16.544 75.8726 15.512 75.2166 14.76C74.5766 13.992 73.7046 13.608 72.6006 13.608C71.5126 13.608 70.6486 13.992 70.0086 14.76C69.3846 15.512 69.0726 16.568 69.0726 17.928C69.0726 19.256 69.3846 20.296 70.0086 21.048C70.6486 21.784 71.5206 22.152 72.6246 22.152ZM86.8698 24V6.72H94.1898C95.4378 6.72 96.5018 6.928 97.3818 7.344C98.2618 7.76 98.9338 8.352 99.3978 9.12C99.8778 9.888 100.118 10.8 100.118 11.856C100.118 12.928 99.8778 13.856 99.3978 14.64C98.9338 15.408 98.2538 16.008 97.3578 16.44C96.4778 16.872 95.4218 17.088 94.1898 17.088H88.8138V14.976H94.0698C95.2058 14.976 96.0698 14.704 96.6618 14.16C97.2698 13.616 97.5738 12.856 97.5738 11.88C97.5738 10.888 97.2778 10.128 96.6858 9.6C96.0938 9.072 95.2218 8.808 94.0698 8.808H89.4138V24H86.8698ZM107.313 24.24C106.081 24.24 104.993 23.968 104.049 23.424C103.121 22.88 102.393 22.128 101.865 21.168C101.337 20.208 101.073 19.104 101.073 17.856C101.073 16.592 101.329 15.488 101.841 14.544C102.369 13.584 103.105 12.84 104.049 12.312C104.993 11.784 106.073 11.52 107.289 11.52C108.473 11.52 109.497 11.776 110.361 12.288C111.241 12.784 111.913 13.48 112.377 14.376C112.857 15.272 113.097 16.336 113.097 17.568C113.097 17.76 113.089 17.944 113.073 18.12C113.073 18.28 113.057 18.448 113.025 18.624H102.753V16.752H111.273L110.649 17.496C110.649 16.184 110.353 15.184 109.761 14.496C109.169 13.808 108.345 13.464 107.289 13.464C106.153 13.464 105.249 13.856 104.577 14.64C103.921 15.408 103.593 16.48 103.593 17.856C103.593 19.248 103.921 20.336 104.577 21.12C105.249 21.904 106.177 22.296 107.361 22.296C108.081 22.296 108.705 22.152 109.233 21.864C109.761 21.56 110.153 21.12 110.409 20.544H112.761C112.361 21.696 111.681 22.6 110.721 23.256C109.777 23.912 108.641 24.24 107.313 24.24ZM120.648 24.24C119.224 24.24 118.176 23.912 117.504 23.256C116.848 22.584 116.52 21.6 116.52 20.304V8.952L118.992 8.016V20.328C118.992 20.968 119.16 21.44 119.496 21.744C119.832 22.048 120.376 22.2 121.128 22.2C121.416 22.2 121.672 22.176 121.896 22.128C122.12 22.08 122.312 22.024 122.472 21.96V23.976C122.296 24.056 122.048 24.12 121.728 24.168C121.408 24.216 121.048 24.24 120.648 24.24ZM114.072 13.752V11.76H122.472V13.752H114.072Z" fill="white"/>
<path d="M16 3C13.4288 3 10.9154 3.76244 8.77759 5.1909C6.63975 6.61935 4.97351 8.64968 3.98957 11.0251C3.00563 13.4006 2.74819 16.0144 3.2498 18.5362C3.75141 21.0579 4.98953 23.3743 6.80762 25.1924C8.6257 27.0105 10.9421 28.2486 13.4638 28.7502C15.9856 29.2518 18.5995 28.9944 20.9749 28.0104C23.3503 27.0265 25.3807 25.3603 26.8091 23.2224C28.2376 21.0846 29 18.5712 29 16C28.9964 12.5533 27.6256 9.24882 25.1884 6.81163C22.7512 4.37445 19.4467 3.00364 16 3ZM16 27C13.8244 27 11.6977 26.3549 9.88873 25.1462C8.07979 23.9375 6.66989 22.2195 5.83733 20.2095C5.00477 18.1995 4.78693 15.9878 5.21137 13.854C5.63581 11.7202 6.68345 9.7602 8.22183 8.22183C9.76021 6.68345 11.7202 5.6358 13.854 5.21136C15.9878 4.78692 18.1995 5.00476 20.2095 5.83733C22.2195 6.66989 23.9375 8.07979 25.1462 9.88873C26.3549 11.6977 27 13.8244 27 16C26.9967 18.9164 25.8367 21.7123 23.7745 23.7745C21.7123 25.8367 18.9164 26.9967 16 27ZM22 16C22 16.2652 21.8946 16.5196 21.7071 16.7071C21.5196 16.8946 21.2652 17 21 17H17V21C17 21.2652 16.8946 21.5196 16.7071 21.7071C16.5196 21.8946 16.2652 22 16 22C15.7348 22 15.4804 21.8946 15.2929 21.7071C15.1054 21.5196 15 21.2652 15 21V17H11C10.7348 17 10.4804 16.8946 10.2929 16.7071C10.1054 16.5196 10 16.2652 10 16C10 15.7348 10.1054 15.4804 10.2929 15.2929C10.4804 15.1054 10.7348 15 11 15H15V11C15 10.7348 15.1054 10.4804 15.2929 10.2929C15.4804 10.1054 15.7348 10 16 10C16.2652 10 16.5196 10.1054 16.7071 10.2929C16.8946 10.4804 17 10.7348 17 11V15H21C21.2652 15 21.5196 15.1054 21.7071 15.2929C21.8946 15.4804 22 15.7348 22 16Z" fill="white"/>
</svg>
