<svg width="61" height="16" viewBox="0 0 61 16" fill="none" xmlns="http://www.w3.org/2000/svg">
<path d="M7.5 13.5C7.5 13.6326 7.44732 13.7598 7.35355 13.8536C7.25979 13.9473 7.13261 14 7 14H3C2.86739 14 2.74021 13.9473 2.64645 13.8536C2.55268 13.7598 2.5 13.6326 2.5 13.5V2.5C2.5 2.36739 2.55268 2.24021 2.64645 2.14645C2.74021 2.05268 2.86739 2 3 2H7C7.13261 2 7.25979 2.05268 7.35355 2.14645C7.44732 2.24021 7.5 2.36739 7.5 2.5C7.5 2.63261 7.44732 2.75979 7.35355 2.85355C7.25979 2.94732 7.13261 3 7 3H3.5V13H7C7.13261 13 7.25979 13.0527 7.35355 13.1464C7.44732 13.2402 7.5 13.3674 7.5 13.5ZM14.3538 7.64625L11.8538 5.14625C11.7599 5.05243 11.6327 4.99972 11.5 4.99972C11.3673 4.99972 11.2401 5.05243 11.1462 5.14625C11.0524 5.24007 10.9997 5.36732 10.9997 5.5C10.9997 5.63268 11.0524 5.75993 11.1462 5.85375L12.7931 7.5H7C6.86739 7.5 6.74021 7.55268 6.64645 7.64645C6.55268 7.74021 6.5 7.86739 6.5 8C6.5 8.13261 6.55268 8.25979 6.64645 8.35355C6.74021 8.44732 6.86739 8.5 7 8.5H12.7931L11.1462 10.1462C11.0524 10.2401 10.9997 10.3673 10.9997 10.5C10.9997 10.6327 11.0524 10.7599 11.1462 10.8538C11.2401 10.9476 11.3673 11.0003 11.5 11.0003C11.6327 11.0003 11.7599 10.9476 11.8538 10.8538L14.3538 8.35375C14.4002 8.30731 14.4371 8.25217 14.4623 8.19147C14.4874 8.13077 14.5004 8.06571 14.5004 8C14.5004 7.93429 14.4874 7.86923 14.4623 7.80853C14.4371 7.74783 14.4002 7.69269 14.3538 7.64625Z" fill="#E0D9D9"/>
<path d="M20.888 12V3.36H22.16V12H20.888ZM21.512 12V10.956H26.504V12H21.512ZM30.0791 12.12C29.4551 12.12 28.9071 11.984 28.4351 11.712C27.9631 11.432 27.5951 11.052 27.3311 10.572C27.0671 10.084 26.9351 9.532 26.9351 8.916C26.9351 8.292 27.0671 7.744 27.3311 7.272C27.6031 6.8 27.9711 6.432 28.4351 6.168C28.9071 5.896 29.4551 5.76 30.0791 5.76C30.7111 5.76 31.2631 5.896 31.7351 6.168C32.2071 6.432 32.5711 6.8 32.8271 7.272C33.0911 7.744 33.2231 8.292 33.2231 8.916C33.2231 9.532 33.0911 10.084 32.8271 10.572C32.5711 11.052 32.2071 11.432 31.7351 11.712C31.2631 11.984 30.7111 12.12 30.0791 12.12ZM30.0791 11.1C30.4551 11.1 30.7791 11.008 31.0511 10.824C31.3311 10.64 31.5511 10.384 31.7111 10.056C31.8711 9.728 31.9511 9.344 31.9511 8.904C31.9511 8.248 31.7751 7.732 31.4231 7.356C31.0791 6.972 30.6311 6.78 30.0791 6.78C29.5351 6.78 29.0871 6.972 28.7351 7.356C28.3911 7.74 28.2191 8.256 28.2191 8.904C28.2191 9.344 28.2951 9.728 28.4471 10.056C28.6071 10.384 28.8271 10.64 29.1071 10.824C29.3951 11.008 29.7191 11.1 30.0791 11.1ZM37.0963 14.58C36.3283 14.58 35.6923 14.404 35.1883 14.052C34.6923 13.708 34.3923 13.248 34.2883 12.672H35.4643C35.5443 12.936 35.7203 13.144 35.9923 13.296C36.2723 13.448 36.6443 13.524 37.1083 13.524C37.7083 13.524 38.1563 13.376 38.4523 13.08C38.7483 12.784 38.8963 12.344 38.8963 11.76V10.44L39.0043 10.464C38.8843 10.928 38.6243 11.296 38.2243 11.568C37.8243 11.832 37.3443 11.964 36.7843 11.964C36.2483 11.964 35.7763 11.836 35.3683 11.58C34.9603 11.324 34.6443 10.968 34.4203 10.512C34.1963 10.048 34.0843 9.508 34.0843 8.892C34.0843 8.268 34.2003 7.72 34.4323 7.248C34.6643 6.776 34.9883 6.412 35.4043 6.156C35.8283 5.9 36.3203 5.772 36.8803 5.772C37.4563 5.772 37.9323 5.912 38.3083 6.192C38.6923 6.464 38.9363 6.852 39.0403 7.356L38.9443 7.368V5.88H40.1323V11.748C40.1323 12.628 39.8603 13.32 39.3163 13.824C38.7803 14.328 38.0403 14.58 37.0963 14.58ZM37.1563 10.956C37.6923 10.956 38.1203 10.768 38.4403 10.392C38.7683 10.016 38.9323 9.5 38.9323 8.844C38.9323 8.204 38.7683 7.7 38.4403 7.332C38.1203 6.964 37.6883 6.78 37.1443 6.78C36.6003 6.78 36.1683 6.968 35.8483 7.344C35.5283 7.712 35.3683 8.224 35.3683 8.88C35.3683 9.52 35.5283 10.028 35.8483 10.404C36.1763 10.772 36.6123 10.956 37.1563 10.956ZM44.5517 12.12C43.9277 12.12 43.3797 11.984 42.9077 11.712C42.4357 11.432 42.0677 11.052 41.8037 10.572C41.5397 10.084 41.4077 9.532 41.4077 8.916C41.4077 8.292 41.5397 7.744 41.8037 7.272C42.0757 6.8 42.4437 6.432 42.9077 6.168C43.3797 5.896 43.9277 5.76 44.5517 5.76C45.1837 5.76 45.7357 5.896 46.2077 6.168C46.6797 6.432 47.0437 6.8 47.2997 7.272C47.5637 7.744 47.6957 8.292 47.6957 8.916C47.6957 9.532 47.5637 10.084 47.2997 10.572C47.0437 11.052 46.6797 11.432 46.2077 11.712C45.7357 11.984 45.1837 12.12 44.5517 12.12ZM44.5517 11.1C44.9277 11.1 45.2517 11.008 45.5237 10.824C45.8037 10.64 46.0237 10.384 46.1837 10.056C46.3437 9.728 46.4237 9.344 46.4237 8.904C46.4237 8.248 46.2477 7.732 45.8957 7.356C45.5517 6.972 45.1037 6.78 44.5517 6.78C44.0077 6.78 43.5597 6.972 43.2077 7.356C42.8637 7.74 42.6917 8.256 42.6917 8.904C42.6917 9.344 42.7677 9.728 42.9197 10.056C43.0797 10.384 43.2997 10.64 43.5797 10.824C43.8677 11.008 44.1917 11.1 44.5517 11.1ZM50.9696 12.12C50.5616 12.12 50.2016 12.036 49.8896 11.868C49.5776 11.692 49.3336 11.452 49.1576 11.148C48.9896 10.844 48.9056 10.496 48.9056 10.104V5.88H50.1536V9.816C50.1536 10.24 50.2576 10.556 50.4656 10.764C50.6736 10.972 50.9696 11.076 51.3536 11.076C51.6976 11.076 52.0016 10.996 52.2656 10.836C52.5376 10.676 52.7496 10.456 52.9016 10.176C53.0616 9.888 53.1416 9.556 53.1416 9.18L53.2976 10.644C53.0976 11.092 52.7896 11.452 52.3736 11.724C51.9656 11.988 51.4976 12.12 50.9696 12.12ZM53.1896 12V10.56H53.1416V5.88H54.3776V12H53.1896ZM58.6714 12.12C57.9594 12.12 57.4354 11.956 57.0994 11.628C56.7714 11.292 56.6074 10.8 56.6074 10.152V4.476L57.8434 4.008V10.164C57.8434 10.484 57.9274 10.72 58.0954 10.872C58.2634 11.024 58.5354 11.1 58.9114 11.1C59.0554 11.1 59.1834 11.088 59.2954 11.064C59.4074 11.04 59.5034 11.012 59.5834 10.98V11.988C59.4954 12.028 59.3714 12.06 59.2114 12.084C59.0514 12.108 58.8714 12.12 58.6714 12.12ZM55.3834 6.876V5.88H59.5834V6.876H55.3834Z" fill="#E0D9D9"/>
</svg>
