<svg width="128" height="32" viewBox="0 0 128 32" fill="none" xmlns="http://www.w3.org/2000/svg">
<path d="M41.776 25V7.72H44.32V25H41.776ZM43.024 25V22.912H53.776V25H43.024ZM43.024 17.104V15.016H52.912V17.104H43.024ZM43.024 9.808V7.72H53.56V9.808H43.024ZM64.9278 25V22.192L65.1678 22.264C64.9118 23.176 64.3838 23.904 63.5838 24.448C62.7838 24.976 61.8238 25.24 60.7038 25.24C59.5998 25.24 58.6318 24.976 57.7998 24.448C56.9838 23.92 56.3438 23.184 55.8798 22.24C55.4318 21.296 55.2078 20.192 55.2078 18.928C55.2078 17.648 55.4398 16.528 55.9038 15.568C56.3678 14.608 57.0158 13.864 57.8478 13.336C58.6798 12.808 59.6558 12.544 60.7758 12.544C61.9438 12.544 62.9038 12.824 63.6558 13.384C64.4238 13.928 64.9278 14.696 65.1678 15.688L64.8318 15.736V7.72H67.3038V25H64.9278ZM61.3278 23.152C62.4318 23.152 63.3038 22.776 63.9438 22.024C64.5838 21.256 64.9038 20.2 64.9038 18.856C64.9038 17.544 64.5758 16.512 63.9198 15.76C63.2798 14.992 62.4078 14.608 61.3038 14.608C60.2158 14.608 59.3518 14.992 58.7118 15.76C58.0878 16.512 57.7758 17.568 57.7758 18.928C57.7758 20.256 58.0878 21.296 58.7118 22.048C59.3518 22.784 60.2238 23.152 61.3278 23.152ZM70.8145 25V12.76H73.3105V25H70.8145ZM70.6945 10.36V7.552H73.4545V10.36H70.6945ZM81.9288 25.24C80.5048 25.24 79.4568 24.912 78.7848 24.256C78.1288 23.584 77.8008 22.6 77.8008 21.304V9.952L80.2728 9.016V21.328C80.2728 21.968 80.4408 22.44 80.7768 22.744C81.1128 23.048 81.6568 23.2 82.4088 23.2C82.6968 23.2 82.9528 23.176 83.1768 23.128C83.4008 23.08 83.5928 23.024 83.7528 22.96V24.976C83.5768 25.056 83.3288 25.12 83.0088 25.168C82.6888 25.216 82.3288 25.24 81.9288 25.24ZM75.3528 14.752V12.76H83.7528V14.752H75.3528ZM90.8776 25V7.72H98.1976C99.4456 7.72 100.51 7.928 101.39 8.344C102.27 8.76 102.942 9.352 103.406 10.12C103.886 10.888 104.126 11.8 104.126 12.856C104.126 13.928 103.886 14.856 103.406 15.64C102.942 16.408 102.262 17.008 101.366 17.44C100.486 17.872 99.4296 18.088 98.1976 18.088H92.8216V15.976H98.0776C99.2136 15.976 100.078 15.704 100.67 15.16C101.278 14.616 101.582 13.856 101.582 12.88C101.582 11.888 101.286 11.128 100.694 10.6C100.102 10.072 99.2296 9.808 98.0776 9.808H93.4216V25H90.8776ZM111.321 25.24C110.089 25.24 109.001 24.968 108.057 24.424C107.129 23.88 106.401 23.128 105.873 22.168C105.345 21.208 105.081 20.104 105.081 18.856C105.081 17.592 105.337 16.488 105.849 15.544C106.377 14.584 107.113 13.84 108.057 13.312C109.001 12.784 110.081 12.52 111.297 12.52C112.481 12.52 113.505 12.776 114.369 13.288C115.249 13.784 115.921 14.48 116.385 15.376C116.865 16.272 117.105 17.336 117.105 18.568C117.105 18.76 117.097 18.944 117.081 19.12C117.081 19.28 117.065 19.448 117.033 19.624H106.761V17.752H115.281L114.657 18.496C114.657 17.184 114.361 16.184 113.769 15.496C113.177 14.808 112.353 14.464 111.297 14.464C110.161 14.464 109.257 14.856 108.585 15.64C107.929 16.408 107.601 17.48 107.601 18.856C107.601 20.248 107.929 21.336 108.585 22.12C109.257 22.904 110.185 23.296 111.369 23.296C112.089 23.296 112.713 23.152 113.241 22.864C113.769 22.56 114.161 22.12 114.417 21.544H116.769C116.369 22.696 115.689 23.6 114.729 24.256C113.785 24.912 112.649 25.24 111.321 25.24ZM124.655 25.24C123.231 25.24 122.183 24.912 121.511 24.256C120.855 23.584 120.527 22.6 120.527 21.304V9.952L122.999 9.016V21.328C122.999 21.968 123.167 22.44 123.503 22.744C123.839 23.048 124.383 23.2 125.135 23.2C125.423 23.2 125.679 23.176 125.903 23.128C126.127 23.08 126.319 23.024 126.479 22.96V24.976C126.303 25.056 126.055 25.12 125.735 25.168C125.415 25.216 125.055 25.24 124.655 25.24ZM118.079 14.752V12.76H126.479V14.752H118.079Z" fill="white"/>
<path d="M28.4138 9.17122L22.8288 3.58497C22.643 3.39921 22.4225 3.25185 22.1799 3.15131C21.9372 3.05077 21.6771 2.99902 21.4144 2.99902C21.1517 2.99902 20.8916 3.05077 20.6489 3.15131C20.4062 3.25185 20.1857 3.39921 20 3.58497L4.58626 19C4.39973 19.185 4.25185 19.4053 4.15121 19.648C4.05057 19.8907 3.99917 20.151 4.00001 20.4137V26C4.00001 26.5304 4.21072 27.0391 4.5858 27.4142C4.96087 27.7893 5.46958 28 6.00001 28H11.5863C11.849 28.0008 12.1093 27.9494 12.352 27.8488C12.5947 27.7481 12.815 27.6002 13 27.4137L28.4138 12C28.5995 11.8142 28.7469 11.5937 28.8474 11.3511C28.948 11.1084 28.9997 10.8483 28.9997 10.5856C28.9997 10.3229 28.948 10.0628 28.8474 9.82012C28.7469 9.57744 28.5995 9.35694 28.4138 9.17122ZM6.41376 20L17 9.41372L19.0863 11.5L8.50001 22.085L6.41376 20ZM6.00001 22.4137L9.58626 26H6.00001V22.4137ZM12 25.5862L9.91376 23.5L20.5 12.9137L22.5863 15L12 25.5862ZM24 13.5862L18.4138 7.99997L21.4138 4.99997L27 10.585L24 13.5862Z" fill="#E0D9D9"/>
</svg>
