<svg width="145" height="32" viewBox="0 0 145 32" fill="none" xmlns="http://www.w3.org/2000/svg">
<path d="M48.04 24.216C45.96 24.216 44.296 23.72 43.048 22.728C41.8 21.736 41.072 20.32 40.864 18.48H43.336C43.48 19.68 43.96 20.592 44.776 21.216C45.592 21.84 46.696 22.152 48.088 22.152C49.256 22.152 50.136 21.936 50.728 21.504C51.336 21.072 51.64 20.456 51.64 19.656C51.64 18.936 51.44 18.368 51.04 17.952C50.64 17.52 50.008 17.168 49.144 16.896L46.144 15.936C44.608 15.44 43.48 14.816 42.76 14.064C42.04 13.312 41.68 12.36 41.68 11.208C41.68 10.232 41.92 9.392 42.4 8.688C42.896 7.984 43.584 7.44 44.464 7.056C45.36 6.656 46.4 6.456 47.584 6.456C49.408 6.456 50.864 6.92 51.952 7.848C53.056 8.76 53.688 10.032 53.848 11.664H51.376C51.184 10.576 50.768 9.784 50.128 9.288C49.488 8.776 48.608 8.52 47.488 8.52C46.432 8.52 45.608 8.728 45.016 9.144C44.424 9.56 44.128 10.144 44.128 10.896C44.128 11.504 44.32 12.016 44.704 12.432C45.104 12.832 45.76 13.176 46.672 13.464L49.816 14.472C51.272 14.936 52.344 15.568 53.032 16.368C53.736 17.168 54.088 18.176 54.088 19.392C54.088 20.928 53.56 22.12 52.504 22.968C51.448 23.8 49.96 24.216 48.04 24.216ZM56.7051 24V6.72H59.2011V24H56.7051ZM65.3931 24V16.128C65.3931 15.28 65.1771 14.648 64.7451 14.232C64.3291 13.816 63.7051 13.608 62.8731 13.608C62.1531 13.608 61.5131 13.768 60.9531 14.088C60.4091 14.408 59.9771 14.848 59.6571 15.408C59.3531 15.968 59.2011 16.632 59.2011 17.4L58.8891 14.472C59.2891 13.56 59.9051 12.84 60.7371 12.312C61.5691 11.784 62.5371 11.52 63.6411 11.52C64.9531 11.52 65.9851 11.888 66.7371 12.624C67.4891 13.36 67.8651 14.336 67.8651 15.552V24H65.3931ZM76.5878 24.24C75.3398 24.24 74.2438 23.968 73.2998 23.424C72.3558 22.864 71.6198 22.104 71.0918 21.144C70.5638 20.168 70.2998 19.064 70.2998 17.832C70.2998 16.584 70.5638 15.488 71.0918 14.544C71.6358 13.6 72.3718 12.864 73.2998 12.336C74.2438 11.792 75.3398 11.52 76.5878 11.52C77.8518 11.52 78.9558 11.792 79.8998 12.336C80.8438 12.864 81.5718 13.6 82.0838 14.544C82.6118 15.488 82.8758 16.584 82.8758 17.832C82.8758 19.064 82.6118 20.168 82.0838 21.144C81.5718 22.104 80.8438 22.864 79.8998 23.424C78.9558 23.968 77.8518 24.24 76.5878 24.24ZM76.5878 22.2C77.3398 22.2 77.9878 22.016 78.5318 21.648C79.0918 21.28 79.5318 20.768 79.8518 20.112C80.1718 19.456 80.3318 18.688 80.3318 17.808C80.3318 16.496 79.9798 15.464 79.2758 14.712C78.5878 13.944 77.6918 13.56 76.5878 13.56C75.4998 13.56 74.6038 13.944 73.8998 14.712C73.2118 15.48 72.8678 16.512 72.8678 17.808C72.8678 18.688 73.0198 19.456 73.3238 20.112C73.6438 20.768 74.0838 21.28 74.6438 21.648C75.2198 22.016 75.8678 22.2 76.5878 22.2ZM87.7017 24L83.9577 11.76H86.5257L89.0697 21.6H88.7097L91.8057 11.76H93.9657L97.0617 21.6H96.7257L99.2457 11.76H101.694L97.9497 24H95.7657L92.6697 14.328H93.0297L89.8857 24H87.7017ZM108.737 24V6.72H116.057C117.305 6.72 118.369 6.928 119.249 7.344C120.129 7.76 120.801 8.352 121.265 9.12C121.745 9.888 121.985 10.8 121.985 11.856C121.985 12.928 121.745 13.856 121.265 14.64C120.801 15.408 120.121 16.008 119.225 16.44C118.345 16.872 117.289 17.088 116.057 17.088H110.681V14.976H115.937C117.073 14.976 117.937 14.704 118.529 14.16C119.137 13.616 119.441 12.856 119.441 11.88C119.441 10.888 119.145 10.128 118.553 9.6C117.961 9.072 117.089 8.808 115.937 8.808H111.281V24H108.737ZM129.18 24.24C127.948 24.24 126.86 23.968 125.916 23.424C124.988 22.88 124.26 22.128 123.732 21.168C123.204 20.208 122.94 19.104 122.94 17.856C122.94 16.592 123.196 15.488 123.708 14.544C124.236 13.584 124.972 12.84 125.916 12.312C126.86 11.784 127.94 11.52 129.156 11.52C130.34 11.52 131.364 11.776 132.228 12.288C133.108 12.784 133.78 13.48 134.244 14.376C134.724 15.272 134.964 16.336 134.964 17.568C134.964 17.76 134.956 17.944 134.94 18.12C134.94 18.28 134.924 18.448 134.892 18.624H124.62V16.752H133.14L132.516 17.496C132.516 16.184 132.22 15.184 131.628 14.496C131.036 13.808 130.212 13.464 129.156 13.464C128.02 13.464 127.116 13.856 126.444 14.64C125.788 15.408 125.46 16.48 125.46 17.856C125.46 19.248 125.788 20.336 126.444 21.12C127.116 21.904 128.044 22.296 129.228 22.296C129.948 22.296 130.572 22.152 131.1 21.864C131.628 21.56 132.02 21.12 132.276 20.544H134.628C134.228 21.696 133.548 22.6 132.588 23.256C131.644 23.912 130.508 24.24 129.18 24.24ZM142.515 24.24C141.091 24.24 140.043 23.912 139.371 23.256C138.715 22.584 138.387 21.6 138.387 20.304V8.952L140.859 8.016V20.328C140.859 20.968 141.027 21.44 141.363 21.744C141.699 22.048 142.243 22.2 142.995 22.2C143.283 22.2 143.539 22.176 143.763 22.128C143.987 22.08 144.179 22.024 144.339 21.96V23.976C144.163 24.056 143.915 24.12 143.595 24.168C143.275 24.216 142.915 24.24 142.515 24.24ZM135.939 13.752V11.76H144.339V13.752H135.939Z" fill="white"/>
<path d="M30.9137 15.595C30.87 15.4963 29.8112 13.1475 27.4575 10.7937C24.3212 7.6575 20.36 6 16 6C11.64 6 7.67874 7.6575 4.54249 10.7937C2.18874 13.1475 1.12499 15.5 1.08624 15.595C1.02938 15.7229 1 15.8613 1 16.0012C1 16.1412 1.02938 16.2796 1.08624 16.4075C1.12999 16.5062 2.18874 18.8538 4.54249 21.2075C7.67874 24.3425 11.64 26 16 26C20.36 26 24.3212 24.3425 27.4575 21.2075C29.8112 18.8538 30.87 16.5062 30.9137 16.4075C30.9706 16.2796 31 16.1412 31 16.0012C31 15.8613 30.9706 15.7229 30.9137 15.595ZM16 24C12.1525 24 8.79124 22.6012 6.00874 19.8438C4.86704 18.7084 3.89572 17.4137 3.12499 16C3.89551 14.5862 4.86686 13.2915 6.00874 12.1562C8.79124 9.39875 12.1525 8 16 8C19.8475 8 23.2087 9.39875 25.9912 12.1562C27.1352 13.2912 28.1086 14.5859 28.8812 16C27.98 17.6825 24.0537 24 16 24ZM16 10C14.8133 10 13.6533 10.3519 12.6666 11.0112C11.6799 11.6705 10.9108 12.6075 10.4567 13.7039C10.0026 14.8003 9.88377 16.0067 10.1153 17.1705C10.3468 18.3344 10.9182 19.4035 11.7573 20.2426C12.5965 21.0818 13.6656 21.6532 14.8294 21.8847C15.9933 22.1162 17.1997 21.9974 18.2961 21.5433C19.3924 21.0892 20.3295 20.3201 20.9888 19.3334C21.6481 18.3467 22 17.1867 22 16C21.9983 14.4092 21.3657 12.884 20.2408 11.7592C19.1159 10.6343 17.5908 10.0017 16 10ZM16 20C15.2089 20 14.4355 19.7654 13.7777 19.3259C13.1199 18.8864 12.6072 18.2616 12.3045 17.5307C12.0017 16.7998 11.9225 15.9956 12.0768 15.2196C12.2312 14.4437 12.6122 13.731 13.1716 13.1716C13.731 12.6122 14.4437 12.2312 15.2196 12.0769C15.9956 11.9225 16.7998 12.0017 17.5307 12.3045C18.2616 12.6072 18.8863 13.1199 19.3259 13.7777C19.7654 14.4355 20 15.2089 20 16C20 17.0609 19.5786 18.0783 18.8284 18.8284C18.0783 19.5786 17.0609 20 16 20Z" fill="#E0D9D9"/>
</svg>
